<svg width="165" height="41" viewBox="0 0 165 41" fill="none" xmlns="http://www.w3.org/2000/svg">
<g clip-path="url(#clip0_82_801)">
<path d="M51.5775 24.7447C51.5775 27.79 49.355 30.8682 44.3935 30.8682C42.635 30.8862 40.9023 30.4436 39.3663 29.5842L38.6938 29.1315L39.9076 25.0904L41.1213 25.8394C42.1618 26.4684 43.3511 26.8066 44.5657 26.8188C45.3366 26.8188 47.108 26.6377 47.108 24.9422C47.108 24.1192 46.9194 23.4196 44.5493 22.4731C40.9819 21.1974 39.2433 19.2468 39.2433 16.4978C39.2187 13.1233 42.048 10.6542 45.9271 10.6542C47.4503 10.605 48.9607 10.9478 50.3146 11.6501L51.1346 12.0945L49.7815 16.0616L48.6334 15.4361C47.7799 14.9835 46.8266 14.7542 45.8615 14.7694C43.7866 14.7694 43.68 16.0287 43.68 16.2756C43.68 17.0492 43.8768 17.6254 46.4355 18.6213C47.845 19.0883 49.1258 19.8804 50.1751 20.934C51.1153 21.9749 51.6178 23.3404 51.5775 24.7447Z" fill="white"/>
<path d="M61.0991 10.6543C59.8659 10.6393 58.6436 10.8868 57.5127 11.3805C56.3819 11.8742 55.3681 12.6029 54.5383 13.5185C52.7813 15.5746 51.8592 18.2188 51.955 20.9259C51.955 26.7859 55.6208 30.8765 60.8694 30.8765C65.4373 30.8765 70.0381 27.6913 70.0381 20.5884C70.128 18.0147 69.2762 15.4969 67.6434 13.5102C66.8292 12.5802 65.8205 11.842 64.6892 11.3483C63.558 10.8546 62.3321 10.6176 61.0991 10.6543ZM60.976 26.8271C58.8356 26.8271 56.5229 24.9588 56.5229 20.86C56.5229 16.3086 58.934 14.6872 61.0006 14.6872C64.0596 14.6872 65.4456 17.7983 65.4456 20.6789C65.4456 23.7407 64.0678 26.8271 60.976 26.8271Z" fill="white"/>
<path d="M75.6882 11.2222H71.2515V30.8683H83.1182V26.7777H75.6882V11.2222Z" fill="white"/>
<path d="M88.3752 11.2222H83.9385V30.8683H88.3752V11.2222Z" fill="white"/>
<path d="M104.277 13.4033C102.497 11.7572 99.9547 10.9341 96.4857 10.9341C94.8383 10.934 93.1933 11.0606 91.5652 11.3127L90.6221 11.4774V30.5391L91.5898 30.6543C92.9844 30.8029 94.3862 30.8743 95.7887 30.8683C99.4791 30.8683 102.407 29.8889 104.244 28.037C105.199 27.0328 105.942 25.8451 106.429 24.5453C106.915 23.2454 107.134 21.8603 107.073 20.4732C107.138 19.1626 106.922 17.8534 106.439 16.6338C105.957 15.4142 105.219 14.3126 104.277 13.4033ZM96.2315 26.8518C96.0183 26.8518 95.5344 26.8518 95.0588 26.8518V15C95.5683 14.9487 96.0802 14.924 96.5923 14.9259C98.618 14.9259 100.143 15.4362 101.144 16.4403C101.639 16.9975 102.018 17.6489 102.257 18.3559C102.497 19.0628 102.592 19.8108 102.538 20.5555C102.513 24.6461 100.357 26.8518 96.2315 26.8518Z" fill="white"/>
<path d="M110.312 11.1974H116.291C120.088 11.1974 122.524 13.3785 122.524 16.8435C122.524 20.3086 120.063 22.5226 116.291 22.5226H110.985V30.6542H110.312V11.1974ZM110.985 11.8312V21.9135H116.25C119.678 21.9135 121.851 19.9876 121.851 16.8682C121.851 13.7571 119.678 11.8559 116.25 11.8559L110.985 11.8312Z" fill="white"/>
<path d="M125.279 16.6295H125.935V19.4443C126.116 18.5678 126.6 17.7835 127.3 17.2294C128.001 16.6754 128.874 16.3872 129.765 16.4155C130.249 16.4065 130.73 16.499 131.176 16.6871V17.3702C130.706 17.1416 130.188 17.0314 129.667 17.0492C127.362 17.0492 125.935 19.0657 125.935 21.897V30.6542H125.279V16.6295Z" fill="white"/>
<path d="M131.364 23.6419C131.364 19.2057 133.825 16.4402 137.515 16.4402C141.205 16.4402 143.682 19.1892 143.682 23.6419C143.682 28.0863 141.222 30.8682 137.515 30.8682C133.808 30.8682 131.364 28.0781 131.364 23.6419ZM143.026 23.6419C143.026 19.576 140.779 17.0575 137.515 17.0575C134.251 17.0575 132.037 19.5925 132.037 23.6419C132.037 27.6995 134.21 30.2263 137.515 30.2263C140.82 30.2263 143.026 27.6995 143.026 23.6419Z" fill="white"/>
<path d="M145.372 23.6419C145.372 19.2057 147.832 16.4402 151.53 16.4402C155.229 16.4402 157.698 19.1892 157.698 23.6419C157.698 28.0863 155.237 30.8682 151.53 30.8682C147.824 30.8682 145.372 28.0781 145.372 23.6419ZM157.033 23.6419C157.033 19.576 154.794 17.0575 151.53 17.0575C148.267 17.0575 146.044 19.5925 146.044 23.6419C146.044 27.6995 148.226 30.2263 151.53 30.2263C154.835 30.2263 157.033 27.6995 157.033 23.6419Z" fill="white"/>
<path d="M160.74 17.2386H158.796V16.6296H160.74V14.1193C160.74 11.9135 161.937 10.9835 163.791 10.9835C164.138 10.9864 164.484 11.025 164.824 11.0987V11.6913C164.493 11.6187 164.154 11.5829 163.815 11.5843C162.339 11.5843 161.412 12.3003 161.412 14.2016V16.6707H164.693V17.2386H161.412V30.6542H160.74V17.2386Z" fill="white"/>
<g clip-path="url(#clip1_82_801)">
<path d="M17.5599 5.24062C17.5686 5.24062 17.5739 5.25224 17.5748 5.27459C17.5792 5.40419 17.5748 5.53469 17.5748 5.6643V7.22314L17.5704 8.78288V10.3417L17.5572 11.897L17.5529 13.4558V15.0147V16.5735L17.5406 18.1368V19.6957V21.2545V22.8134L17.5362 24.3722V25.9311L17.5318 27.4908L17.5274 29.0496V30.6085V32.1673L17.523 33.7262L17.5186 35.285V36.2521C14.7135 34.5379 12.2387 32.3167 10.2159 29.6977C12.1249 29.8469 14.1726 29.5189 15.6315 28.2568C16.1727 27.7887 16.6118 27.2105 16.9208 26.5593C17.2297 25.9081 17.4016 25.1983 17.4255 24.4754C17.4494 23.7525 17.3247 23.0326 17.0594 22.3617C16.7941 21.6908 16.3941 21.0838 15.8851 20.5797C14.7849 19.4901 13.2777 18.9708 11.8846 18.3129C11.1318 17.9554 10.2791 17.3234 10.4361 16.494C10.5932 15.6645 11.6143 15.3955 12.4522 15.3382C13.9313 15.2364 15.4128 15.2027 16.8966 15.2372L16.9703 11.7147C15.4789 11.7799 13.9875 11.6181 12.5022 11.6959C11.0169 11.7736 9.48073 12.1196 8.31566 13.0652C7.79996 13.4842 7.37432 14.0068 7.06516 14.6004C6.75601 15.1941 6.56994 15.8461 6.51852 16.5161C6.4671 17.1861 6.55143 17.8597 6.76626 18.4951C6.98109 19.1305 7.32184 19.7141 7.76734 20.2096C8.5964 21.1339 9.73954 21.6988 10.8897 22.1412C11.5152 22.3816 12.1653 22.5997 12.6864 23.0261C13.2075 23.4525 13.5804 24.1479 13.4225 24.8093C13.1821 25.8193 11.9311 26.1724 10.9143 26.0982C9.84105 26.0186 8.80209 25.6788 7.88403 25.1069C7.60795 24.9452 7.35841 24.7404 7.14445 24.5C6.90144 24.2104 6.7444 23.8565 6.59789 23.5052C4.81388 19.2049 4.13018 14.5136 4.61078 9.87068C4.61078 9.86263 5.20121 9.85101 5.25648 9.84833C5.47406 9.8376 5.69104 9.8233 5.90745 9.80542C6.34201 9.76967 6.77452 9.722 7.20499 9.66241C7.63545 9.60282 8.06417 9.52804 8.49112 9.43806C8.9175 9.34987 9.34124 9.24916 9.76235 9.13594C10.1835 9.02273 10.6005 8.8967 11.0134 8.75785C11.4275 8.61961 11.8369 8.46885 12.2416 8.30557C12.6464 8.1423 13.0461 7.96711 13.4409 7.78C13.8345 7.59289 14.2232 7.39446 14.6068 7.18471C14.9905 6.97496 15.3672 6.75299 15.7368 6.5188C16.107 6.28581 16.4697 6.0412 16.8247 5.78497C17.0002 5.65715 17.1756 5.52576 17.3511 5.39258L17.4818 5.29247C17.5055 5.27191 17.5406 5.23437 17.5599 5.24062Z" fill="white"/>
<path d="M17.5827 1.03245C17.5827 1.07357 17.5827 1.10843 17.5827 1.10843L17.5775 2.35979V2.90056L17.5696 2.90861C16.9937 3.39623 16.3915 3.8507 15.7658 4.26991C9.63343 8.39227 2.729 8.29663 2.729 8.29663C1.99821 16.0837 3.81775 22.2404 6.40581 26.9089C6.84446 27.7017 7.30681 28.4499 7.78055 29.1578C9.84065 32.2132 12.3913 34.8932 15.3254 37.0852C15.4816 37.2002 15.631 37.3083 15.7737 37.4096C16.3236 37.811 16.896 38.1793 17.488 38.5126V38.686V40.1743V40.6498C17.488 40.6498 -1.25398 30.4208 0.966489 6.80929C0.966489 6.80929 10.316 6.9389 17.5845 0.77771L17.5827 1.03245Z" fill="white"/>
<path d="M19.0498 40.3119C18.7942 40.4719 18.6036 40.5849 18.4893 40.6498H18.3662V39.8617L19.0449 39.8558L19.0498 40.3119ZM19.4209 40.0746L19.4199 39.847H19.7627C19.6422 39.9283 19.528 40.0046 19.4209 40.0746ZM19.0557 39.4906L18.3662 39.4974L18.3672 38.6976L19.0479 38.6888L19.0557 39.4906ZM20.1768 39.472L19.4033 39.4808L19.3955 38.6927L20.1689 38.684L20.1768 39.472ZM21.3154 38.726C21.0449 38.9331 20.7878 39.1229 20.5479 39.2963L20.542 38.681L21.3154 38.6713V38.726ZM19.0361 38.3363H18.7539C18.8359 38.2874 18.9298 38.2269 19.0361 38.1674V38.3363ZM20.1768 38.3187L19.3906 38.3275L19.3867 37.933C19.5699 37.8139 19.7748 37.6753 19.9971 37.5199H20.1719L20.1768 38.3187ZM21.3027 38.3031L20.5293 38.3119L20.5215 37.5238L21.2949 37.515L21.3027 38.3031ZM22.4424 37.8285C22.2442 37.9931 22.05 38.1518 21.8623 38.3021H21.6738L21.666 37.515L22.4424 37.5092V37.8285ZM21.3047 37.1508L20.5186 37.1595V37.1508C20.5316 37.1428 20.5445 37.1322 20.5576 37.1224C20.791 36.9493 21.0385 36.7613 21.2998 36.558L21.3047 37.1508ZM22.4277 37.1322L21.6543 37.141L21.6465 36.3529L22.4199 36.3441L22.4277 37.1322ZM23.5713 37.1215L22.7979 37.1293L22.79 36.3412L23.5635 36.3334L23.5713 37.1215ZM19.0176 35.89L18.8008 36.0267L18.3691 36.0316V35.2152L19.0117 35.2094L19.0176 35.89ZM22.4307 35.9818L22.0068 35.9857C22.1438 35.8711 22.285 35.7516 22.4307 35.6254V35.9818ZM23.5518 35.9623L22.7793 35.9711L22.7725 35.3265L22.9365 35.181L23.5439 35.1742L23.5518 35.9623ZM24.6963 35.9515L23.9229 35.9594L23.915 35.1713L24.6885 35.1635L24.6963 35.9515ZM20.0361 35.1947C19.7873 35.3735 19.5602 35.5291 19.3594 35.6625L19.3555 35.2025L20.0361 35.1947ZM19.0225 34.8724L18.3701 34.8793V34.0511L19.0137 34.0443L19.0225 34.8724ZM20.1426 34.8549L19.3428 34.8627L19.335 34.0482L20.1348 34.0394L20.1426 34.8549ZM21.2822 34.2465C21.0117 34.4661 20.7523 34.6678 20.5088 34.851H20.4893L20.4814 34.0365L21.2803 34.0267L21.2822 34.2465ZM23.5557 34.8138H23.3389L23.5557 34.6136V34.8138ZM24.6768 34.7875L23.9033 34.7963L23.8984 34.2767L24.1748 34.0101L24.6689 34.0052L24.6768 34.7875ZM25.8213 34.7816L25.0479 34.7894L25.04 34.0013L25.8135 33.9935L25.8213 34.7816ZM19.002 33.7152L18.3711 33.7211L18.3721 32.8929L18.9941 32.8861L19.002 33.7152ZM20.1455 33.7035L19.333 33.7123L19.3252 32.8842L20.1377 32.8754L20.1455 33.7035ZM21.2598 33.6927L20.46 33.7006L20.4521 32.8861L21.252 32.8773L21.2598 33.6927ZM22.4092 33.2797C22.2574 33.4175 22.1069 33.5503 21.9629 33.6801H21.6133L21.6055 32.8656L22.4043 32.8578L22.4092 33.2797ZM24.6797 33.642L24.5391 33.6429C24.5861 33.595 24.6326 33.5463 24.6797 33.4974V33.642ZM25.8027 33.6224L25.0293 33.6312L25.0254 33.1332L25.2949 32.8402L25.7949 32.8353L25.8027 33.6224ZM26.9434 33.3676C26.8727 33.4502 26.8031 33.5318 26.7324 33.6127L26.1729 33.6185L26.165 32.8314L26.9385 32.8226L26.9434 33.3676ZM22.8633 32.8617L22.7393 32.9789V32.8597L22.8633 32.8617ZM19.0059 32.5629L18.3711 32.5697L18.3721 31.7289L18.9971 31.722L19.0059 32.5629ZM20.126 32.5443L19.3135 32.5531L19.3057 31.725L20.1182 31.7162L20.126 32.5443ZM21.2705 32.5336L20.458 32.5424L20.4492 31.7142L21.2617 31.7054L21.2705 32.5336ZM22.3936 32.515L21.5938 32.5228L21.5859 31.7084L22.3848 31.6996L22.3936 32.515ZM23.5352 32.2094C23.4375 32.3097 23.3348 32.4084 23.2363 32.5052L22.7393 32.5101L22.7305 31.6957L23.5303 31.6879L23.5352 32.2094ZM25.8018 32.474H25.6201C25.683 32.4064 25.7433 32.3366 25.8018 32.2699V32.474ZM26.9238 32.4525L26.1504 32.4613L26.1445 31.8666C26.1987 31.8016 26.2535 31.7371 26.3076 31.6713L26.9189 31.6654L26.9238 32.4525ZM28.0664 31.9808C27.9459 32.1374 27.8246 32.2926 27.7041 32.4447L27.2988 32.4496L27.291 31.6615L28.0664 31.6527V31.9808ZM23.8662 31.8685V31.6908H24.041C23.9808 31.7495 23.9238 31.809 23.8662 31.8685ZM18.9854 31.4047L18.373 31.4115V30.5697L18.9775 30.5638L18.9854 31.4047ZM20.1211 31.4008L19.2949 31.4095L19.2871 30.5677L20.1123 30.5599L20.1211 31.4008ZM21.251 31.3754L20.4385 31.3842L20.4297 30.556L21.2422 30.5472L21.251 31.3754ZM22.3965 31.3627L21.584 31.3715L21.5752 30.5433L22.3877 30.5345L22.3965 31.3627ZM23.5176 31.3451L22.7178 31.3529L22.71 30.5385L23.5088 30.5297L23.5176 31.3451ZM24.6611 31.3324L23.8613 31.3412L23.8535 30.5267L24.6533 30.5179L24.6611 31.3324ZM26.9287 31.3051H26.6094C26.7149 31.1744 26.8197 31.042 26.9287 30.9095V31.3051ZM28.0508 31.2836L27.2773 31.2924L27.2695 30.5043L28.043 30.4955L28.0508 31.2836ZM28.5977 31.2797H28.4229L28.4141 30.4877L29.1631 30.4857C28.9754 30.7552 28.788 31.0208 28.5977 31.2797ZM24.9902 30.6332V30.5209L25.0869 30.5199C25.0555 30.5581 25.0225 30.5959 24.9902 30.6332ZM18.7363 29.5111L18.9824 29.5131L18.9893 30.2543L18.374 30.2611V29.4056L18.7373 29.4017L18.7363 29.5111ZM20.1045 29.5179L20.1113 30.2347L19.2842 30.2445L19.2783 29.514L20.1045 29.5179ZM21.2471 29.5248L21.2539 30.224L20.4287 30.2328L20.4219 29.5199L21.2471 29.5248ZM22.3701 29.5306L22.376 30.2045L21.5635 30.2142L21.5566 29.5258L22.3701 29.5306ZM23.5127 30.2015L22.7002 30.2094L22.6924 29.3812L23.5049 29.3734L23.5127 30.2015ZM24.6426 30.1761L23.8428 30.184L23.835 29.3695L24.6348 29.3607L24.6426 30.1761ZM25.7832 29.6703C25.65 29.8392 25.5176 30.0045 25.3867 30.1664L24.9912 30.1713L24.9834 29.3558L25.7832 29.347V29.6703ZM28.0547 30.1322L27.5068 30.1371C27.6884 29.8907 27.8679 29.6382 28.0469 29.3802L28.0547 30.1322ZM29.1758 30.1136L28.4023 30.1224L28.3945 29.3344L29.168 29.3256L29.1758 30.1136ZM29.5488 29.9154L29.543 29.3177H29.9375C29.8109 29.5196 29.6798 29.7189 29.5488 29.9154ZM18.7393 29.099L18.375 29.1029V28.2474L18.7441 28.2435L18.7393 29.099ZM23.502 29.0355L22.6895 29.0443L22.6807 28.2162L23.4932 28.2074L23.502 29.0355ZM24.6455 29.0238L23.833 29.0326L23.8242 28.2045L24.6367 28.1957L24.6455 29.0238ZM25.7676 29.0043L24.9678 29.0131L24.96 28.1976L25.7598 28.1898L25.7676 29.0043ZM26.8789 28.1752C26.686 28.4597 26.4929 28.7325 26.2939 28.9984H26.1123L26.1045 28.183L26.8789 28.1752ZM29.1768 28.9584L28.3916 28.9662V28.8656C28.5435 28.6343 28.6945 28.3998 28.8438 28.1605H29.1709L29.1768 28.9584ZM30.3008 28.9437L29.5273 28.9525L29.5195 28.1644L30.293 28.1556L30.3008 28.9437ZM18.7451 27.9476L18.375 27.9515L18.376 27.0824L18.75 27.0795L18.7451 27.9476ZM23.5039 27.8842L22.6787 27.8929L22.6699 27.0511L23.4961 27.0424L23.5039 27.8842ZM24.626 27.8656L23.8135 27.8734L23.8047 27.0453L24.6172 27.0375L24.626 27.8656ZM25.7705 27.8529L24.958 27.8617L24.9492 27.0336L25.7617 27.0248L25.7705 27.8529ZM26.8916 27.8353L26.0918 27.8431L26.084 27.0287L26.8838 27.0209L26.8916 27.8353ZM29.1602 27.8041L29.0654 27.8051C29.0977 27.7526 29.1296 27.7012 29.1602 27.6488V27.8041ZM30.3027 27.7924L29.5166 27.8002L29.5088 26.9994L30.2949 26.9906L30.3027 27.7924ZM30.8555 27.7816H30.6523L30.6455 26.9955L31.292 26.9886C31.1483 27.2565 31.0026 27.5208 30.8555 27.7816ZM27.2354 27.641L27.2295 27.0189L27.6338 27.0101C27.503 27.2251 27.3696 27.434 27.2354 27.641ZM18.751 26.7894L18.376 26.7933L18.377 25.9242L18.7559 25.9203L18.751 26.7894ZM23.4844 26.726L22.6592 26.7347L22.6504 25.8929L23.4766 25.8851L23.4844 26.726ZM24.6279 26.7142L23.8027 26.723L23.7939 25.8812L24.6201 25.8724L24.6279 26.7142ZM25.751 26.6957L24.9385 26.7035L24.9307 25.8754L25.7432 25.8676L25.751 26.6957ZM26.8945 26.684L26.082 26.6927L26.0742 25.8646L26.8867 25.8558L26.8945 26.684ZM28.0146 26.3695L27.8408 26.6674L27.2178 26.6732L27.21 25.8588L28.0098 25.85L28.0146 26.3695ZM30.2842 26.6342L29.7344 26.64C29.8787 26.3761 30.0205 26.1071 30.1602 25.8344L30.2754 25.8334L30.2842 26.6342ZM31.4287 26.6224L30.6426 26.6302L30.6348 25.8295L31.4209 25.8207L31.4287 26.6224ZM31.7715 26.0463L31.7695 25.8236H31.8809C31.846 25.8982 31.8081 25.9717 31.7715 26.0463ZM18.7568 25.6381L18.377 25.642L18.3779 24.7601L18.7607 24.7552L18.7568 25.6381ZM23.4883 25.5746L22.6484 25.5834L22.6436 25.1136L22.6406 24.7279H22.6465L23.4795 24.7191L23.4883 25.5746ZM24.6035 25.5648L23.7773 25.5736L23.7695 24.7318L24.5947 24.723L24.6035 25.5648ZM25.7539 25.5443L24.9277 25.5531L24.9199 24.7113L25.7451 24.7025L25.7539 25.5443ZM26.875 25.5267L26.0625 25.5345L26.0547 24.7064L26.8672 24.6986L26.875 25.5267ZM28.0205 25.514L27.208 25.5228L27.2002 24.6947L28.0127 24.6859L28.0205 25.514ZM28.9082 24.683C28.7738 24.9616 28.6356 25.2353 28.4941 25.5033H28.3428L28.335 24.6888L28.9082 24.683ZM31.4082 25.4652L30.6221 25.474L30.6143 24.6722L31.4004 24.6635L31.4082 25.4652ZM32.0547 25.4613H31.7676L31.7598 24.6625L32.4209 24.6556C32.3022 24.9289 32.1798 25.1975 32.0547 25.4613ZM18.7627 24.4799L18.3779 24.4838L18.3789 23.601L18.7676 23.598L18.7627 24.4799ZM23.4678 24.4164L22.6475 24.4252L22.6514 23.5697L23.459 23.5609L23.4678 24.4164ZM24.6123 24.4066L23.7725 24.4154L23.7646 23.559L24.6045 23.5502L24.6123 24.4066ZM25.7344 24.3861L24.9082 24.3949L24.9004 23.5541L25.7256 23.5453L25.7344 24.3861ZM26.8721 24.3842L26.0459 24.3929L26.0381 23.5511L26.8643 23.5433L26.8721 24.3842ZM28 24.3558L27.1875 24.3636L27.1797 23.5355L27.9922 23.5277L28 24.3558ZM29.1445 24.3441L28.332 24.3529L28.3242 23.5248L29.1367 23.516L29.1445 24.3441ZM31.4111 24.3129L30.8818 24.3177C31.0011 24.0498 31.1162 23.7764 31.2285 23.4984H31.4033L31.4111 24.3129ZM32.5332 24.2943L31.7471 24.3031L31.7393 23.5013L32.5254 23.4935L32.5332 24.2943ZM32.8848 23.5414V23.4886H32.9062L32.8848 23.5414ZM18.7686 23.3285L18.3789 23.3324V22.4369L18.7734 22.433L18.7686 23.3285ZM25.7373 23.2347H25.4238C25.5294 23.2107 25.6342 23.184 25.7363 23.1547L25.7373 23.2347ZM26.8604 23.2172L26.0332 23.225V23.0687C26.314 22.9801 26.589 22.8734 26.8564 22.7494L26.8604 23.2172ZM28.0039 23.2045L27.1777 23.2123L27.1719 22.5892C27.3035 22.519 27.4338 22.4437 27.5576 22.3646L27.9941 22.3597L28.0039 23.2045ZM29.125 23.1869L28.3125 23.1947L28.3047 22.3666L29.1172 22.3588L29.125 23.1869ZM29.9053 22.35C29.8014 22.6309 29.6918 22.9091 29.5801 23.182H29.457L29.4492 22.3539L29.9053 22.35ZM31.3926 23.1556H31.3691C31.3762 23.1361 31.3845 23.1164 31.3916 23.0951L31.3926 23.1556ZM32.5361 23.1449L31.7363 23.1527L31.7285 22.3383L32.5273 22.3295L32.5361 23.1449ZM33.0479 23.1332H32.873L32.8682 22.3334L33.3438 22.3285C33.2477 22.5997 33.1482 22.8664 33.0479 23.1332ZM18.7754 22.1703L18.3809 22.1742V21.2787L18.7793 21.2738L18.7754 22.1703ZM29.1289 22.0375L28.3027 22.0453V21.8109C28.4191 21.709 28.5281 21.602 28.6299 21.4906C28.7207 21.3963 28.8078 21.2984 28.8916 21.1976H29.125L29.1289 22.0375ZM30.2471 21.3793C30.1738 21.5927 30.1018 21.8082 30.0303 22.0189L29.4424 22.0248L29.4336 21.1957L30.2471 21.1879V21.3793ZM32.5166 21.9857L31.7988 21.9926C31.8925 21.7234 31.983 21.4505 32.0703 21.1742L32.5088 21.1703L32.5166 21.9857ZM33.6562 21.39C33.5925 21.5865 33.5274 21.782 33.4619 21.975L32.8613 21.9808L32.8535 21.1664L33.6562 21.1586V21.39ZM18.7803 21.0179L18.3809 21.0228V20.1146L18.7852 20.1088L18.7803 21.0179ZM30.2539 20.8646L29.4277 20.8734L29.4229 20.392C29.4857 20.2734 29.5431 20.1524 29.5967 20.0297L30.2451 20.0228L30.2539 20.8646ZM32.5176 20.8334L32.1729 20.8363C32.2561 20.5624 32.3349 20.2851 32.4111 20.0052H32.5088L32.5176 20.8334ZM33.6406 20.8158L32.8408 20.8246L32.833 20.0092L33.6328 20.0013L33.6406 20.8158ZM30.5537 20.3597V20.0258L30.6475 20.0248C30.6169 20.1369 30.586 20.2494 30.5537 20.3597ZM33.9814 20.3158L33.9766 19.9955H34.0684C34.041 20.1021 34.0123 20.2092 33.9814 20.3158ZM18.9023 19.8597L18.3818 19.8646V18.9554L18.8926 18.9496L18.9023 19.8597ZM20.0459 19.847L19.1533 19.8568L19.1445 18.9476L20.0371 18.9388L20.0459 19.847ZM21.168 19.8295L20.2881 19.8383L20.2793 18.9427L21.1582 18.934L21.168 19.8295ZM22.3135 19.8177L21.4336 19.8265L21.4248 18.931L22.3037 18.9222L22.3135 19.8177ZM23.4346 19.7982L22.5684 19.808L22.5596 18.9252L23.4258 18.9164L23.4346 19.7982ZM24.5781 19.7572V19.7592L24.5791 19.7875H24.4775C24.4798 19.7869 24.4821 19.7861 24.4844 19.7855H24.4629L23.7129 19.7943L23.7051 18.9115L24.5703 18.9027L24.5781 19.7572ZM30.2344 19.7064L29.7236 19.7123C29.8223 19.4374 29.9005 19.1546 29.957 18.8676H30.2256L30.2344 19.7064ZM30.7363 19.7035H30.5518L30.5439 18.8617L30.9385 18.8568C30.875 19.1421 30.8079 19.4248 30.7363 19.7035ZM25.6953 19.1166C25.4622 19.3706 25.1706 19.5625 24.8477 19.6752L24.8398 18.9076L25.6924 18.8988L25.6953 19.1166ZM33.6436 19.6644L32.8311 19.6732L32.8223 18.8451L33.6348 18.8363L33.6436 19.6644ZM34.1641 19.6547H33.9668L33.959 18.8373H34.3691C34.3034 19.1117 34.235 19.3844 34.1641 19.6547ZM18.9053 18.7074L18.3838 18.7133V17.7904L18.8955 17.7855L18.9053 18.7074ZM20.0254 18.6908L19.1328 18.6996L19.124 17.7904L20.0166 17.7816L20.0254 18.6908ZM21.1709 18.6771L20.2783 18.6869L20.2695 17.7777L21.1621 17.7689L21.1709 18.6771ZM22.293 18.6586L21.4131 18.6683L21.4043 17.7719L22.2832 17.7631L22.293 18.6586ZM23.4375 18.6478L22.5576 18.6566L22.5488 17.7611L23.4277 17.7523L23.4375 18.6478ZM24.5557 18.6371L23.6895 18.6459L23.6807 17.7631L24.5469 17.7543L24.5557 18.6371ZM25.7002 18.6263L24.834 18.6351L24.8252 17.7523L25.6914 17.7435L25.7002 18.6263ZM26.1982 17.7357C26.1887 18.0349 26.1259 18.3302 26.0137 18.6068H25.9736L25.9648 17.7377L26.1982 17.7357ZM30.2363 18.556H30.0098C30.0515 18.2726 30.0759 17.9861 30.083 17.6996H30.2285L30.2363 18.556ZM31.0078 18.5404L30.5322 18.5463L30.5244 17.7035L31.1729 17.6976C31.1222 17.9815 31.0671 18.2624 31.0078 18.5404ZM33.625 18.5072L32.8115 18.516V18.3871C32.8613 18.155 32.9087 17.9216 32.9541 17.6859L33.6172 17.6791L33.625 18.5072ZM34.6211 17.6674C34.5676 17.9465 34.5101 18.2236 34.4473 18.4974L33.957 18.5023L33.9453 17.6742L34.6211 17.6674ZM18.8848 17.5502L18.3838 17.556V16.6322L18.875 16.6273L18.8848 17.5502ZM20.0293 17.5385L19.124 17.5482L19.1143 16.6254L20.0195 16.6166L20.0293 17.5385ZM21.1514 17.5199L20.2588 17.5287L20.25 16.6205L21.1426 16.6107L21.1514 17.5199ZM22.2959 17.5082L21.4033 17.517L21.3945 16.6078L22.2871 16.599L22.2959 17.5082ZM23.4189 17.4896L22.5391 17.4994L22.5303 16.6029L23.4092 16.5941L23.4189 17.4896ZM24.5625 17.4779L23.6826 17.4867L23.6738 16.5912L24.5527 16.5824L24.5625 17.4779ZM25.6846 17.4594L24.8184 17.4691L24.8096 16.5863L25.6758 16.5775L25.6846 17.4594ZM25.9951 16.5707C26.1258 16.846 26.1967 17.1468 26.2012 17.4525H25.9629L25.9541 16.5707H25.9951ZM30.2168 17.3978H30.0869C30.0844 17.1119 30.0613 16.8259 30.0186 16.5433H30.208L30.2168 17.3978ZM31.3525 16.5453C31.3141 16.8264 31.2725 17.1072 31.2266 17.3871L30.5225 17.3939L30.5137 16.5394L31.3525 16.5306V16.5453ZM33.625 17.3549L33.0146 17.3617C33.0653 17.0837 33.1114 16.8006 33.1533 16.5131H33.6162L33.625 17.3549ZM34.7461 17.0365C34.7286 17.1379 34.7096 17.2377 34.6904 17.3373L33.9375 17.3451L33.9297 16.516L34.7412 16.5082L34.7461 17.0365ZM18.8799 15.4877H18.8789V15.4896L18.8877 16.3998L18.3848 16.4047L18.3857 15.4672L18.8086 15.4633L18.8779 15.4623L18.8799 15.4877ZM20.002 15.4916L20.0098 16.3812L19.1045 16.39L19.0957 15.4896L20.002 15.4916ZM21.1455 15.4926L21.1543 16.3685L20.249 16.3783L20.2402 15.4906L21.1455 15.4926ZM22.2676 15.4935L22.2764 16.35L21.3838 16.3597L21.375 15.4926L22.2676 15.4935ZM23.4131 15.4945L23.4209 16.3383L22.5283 16.347L22.5195 15.4935L23.4131 15.4945ZM24.5361 15.5853L24.543 16.3197L23.6641 16.3285L23.6562 15.5082L24.5361 15.5853ZM25.6855 16.142L25.6875 16.307L24.8086 16.3168L24.8018 15.6488L25.6855 16.142ZM30.2197 16.2465H29.9668C29.9079 15.9511 29.825 15.6612 29.7178 15.3802L30.2109 15.3744L30.2197 16.2465ZM31.3418 16.2279L30.502 16.2367L30.4941 15.3812L31.334 15.3724L31.3418 16.2279ZM33.5996 15.3597L33.6084 16.2015H33.2031C33.2427 15.9228 33.2787 15.6416 33.3125 15.3588L33.5996 15.3597ZM34.752 16.1849L33.9258 16.1937L33.918 15.3519L34.7432 15.3441L34.752 16.1849ZM18.8096 15.2416L18.3857 15.2455L18.3867 14.3099L18.8154 14.306L18.8096 15.2416ZM30.2012 15.0883L29.5967 15.0941C29.5214 14.9274 29.4366 14.7653 29.3428 14.6088V14.2289L30.1953 14.2201L30.2012 15.0883ZM31.3447 15.0765L30.4912 15.0863L30.4834 14.2172L31.3359 14.2084L31.3447 15.0765ZM33.6084 15.0482H33.3467C33.3758 14.7661 33.4019 14.4812 33.4258 14.1937H33.6006L33.6084 15.0482ZM34.7324 15.0277L33.9072 15.0355L33.8984 14.1947L34.7246 14.1859L34.7324 15.0277ZM35.0547 15.0238H35.0488L35.041 14.1801H35.1494C35.1215 14.4638 35.0896 14.7454 35.0547 15.0238ZM18.8164 14.0902L18.3867 14.0961L18.3877 13.1449L18.8213 13.14L18.8164 14.0902ZM29.0586 13.9486H28.8682C28.7382 13.7972 28.5985 13.6546 28.4502 13.5219C28.363 13.4437 28.2757 13.3682 28.1885 13.2963V13.0746L29.0537 13.0648L29.0586 13.9486ZM30.2031 13.9369L29.3379 13.9467L29.3291 13.0638L30.1943 13.0551L30.2031 13.9369ZM31.3252 13.9193L30.4717 13.9281L30.4639 13.059L31.3164 13.0502L31.3252 13.9193ZM33.5908 13.889H33.4512C33.4721 13.6069 33.4882 13.3217 33.501 13.0336H33.582L33.5908 13.889ZM34.7363 13.8754L33.8965 13.8842L33.8887 13.0297L34.7285 13.0209L34.7363 13.8754ZM35.1816 13.8666H35.0312L35.0234 13.0228H35.252C35.231 13.3066 35.2087 13.5882 35.1816 13.8666ZM27.9277 13.1068L27.8789 13.0726H27.9277V13.1068ZM18.8223 12.932L18.3877 12.9369L18.3887 11.9867L18.8281 11.9808L18.8223 12.932ZM27.917 12.809L27.4521 12.8138C27.3186 12.7409 27.1802 12.672 27.0361 12.6097L27.0293 11.9232L27.9082 11.9135L27.917 12.809ZM29.0615 12.7982L28.1816 12.807L28.1729 11.9115L29.0518 11.9027L29.0615 12.7982ZM30.1816 12.7885L29.3154 12.7972L29.3076 11.9154L30.1729 11.9066L30.1816 12.7885ZM31.3281 12.7679L30.4619 12.7767L30.4531 11.8949L31.3193 11.8861L31.3281 12.7679ZM33.5947 12.7377H33.5146C33.5251 12.4504 33.5318 12.1638 33.5361 11.8685H33.5859L33.5947 12.7377ZM34.7158 12.7181L33.876 12.7269L33.8672 11.8724L34.707 11.8636L34.7158 12.7181ZM35.2725 12.7152H35.0215L35.0127 11.8597H35.3154C35.3032 12.1469 35.2899 12.4325 35.2725 12.7152ZM26.792 12.5082C26.5004 12.3944 26.2014 12.3006 25.8975 12.2279V11.9281L26.7891 11.9193L26.792 12.5082ZM25.6445 12.1703C25.3592 12.1107 25.0607 12.0635 24.75 12.0306V11.9418L25.6426 11.932L25.6445 12.1703ZM24.5205 12.0092C24.2289 11.9842 23.9268 11.9689 23.6143 11.9672V11.9457L24.5195 11.9359L24.5205 12.0092ZM23.376 11.9652L22.4697 11.9603V11.9574L23.376 11.9486V11.9652ZM22.2529 11.9594L21.877 11.9574L22.2529 11.9525V11.9594ZM18.8545 11.7806L18.3887 11.7855V10.8226L18.8447 10.8177L18.8545 11.7806ZM19.9766 11.7621L19.0439 11.7719L19.0342 10.8217L19.9668 10.8119L19.9766 11.7621ZM21.1211 11.7504L20.1885 11.7611L20.1787 10.8109L21.1113 10.8011L21.1211 11.7504ZM22.2432 11.7318L21.3242 11.7416L21.3145 10.8051L22.2334 10.7953L22.2432 11.7318ZM23.3877 11.7211L22.4688 11.7308L22.459 10.7943L23.3779 10.7845L23.3877 11.7211ZM24.5088 11.7015L23.6035 11.7103L23.5938 10.7885L24.499 10.7787L24.5088 11.7015ZM25.6533 11.6879L24.748 11.6976L24.7383 10.7758L25.6436 10.766L25.6533 11.6879ZM26.7754 11.6713L25.8828 11.6801L25.874 10.7719L26.7656 10.7621L26.7754 11.6713ZM27.918 11.6674L27.0264 11.6761L27.0176 10.767L27.9092 10.7582L27.918 11.6674ZM29.042 11.64L28.1621 11.6498L28.1533 10.7533L29.0322 10.7445L29.042 11.64ZM30.1865 11.6283L29.3066 11.6371L29.2979 10.7416L30.1768 10.7328L30.1865 11.6283ZM31.3076 11.6097L30.4424 11.6195L30.4336 10.7367L31.2988 10.7279L31.3076 11.6097ZM33.5654 10.7113L33.5742 11.5795H33.5391C33.5396 11.2919 33.5375 11.002 33.5322 10.7103L33.5654 10.7113ZM34.7188 11.5677L33.8662 11.5765L33.8574 10.7074L34.71 10.6986L34.7188 11.5677ZM35.3252 11.556H35.002L34.9941 10.7006H35.3428C35.3404 10.9875 35.3345 11.2726 35.3252 11.556ZM18.834 10.6234L18.3896 10.6273V9.66443L18.8252 9.65955L18.834 10.6234ZM19.9795 10.6107L19.0342 10.6205L19.0244 9.65759L19.9697 9.64783L19.9795 10.6107ZM21.1016 10.5931L20.1689 10.6029L20.1592 9.65271L21.0918 9.64294L21.1016 10.5931ZM22.2461 10.5814L21.3135 10.5912L21.3037 9.64099L22.2363 9.63123L22.2461 10.5814ZM23.3672 10.5629L22.4482 10.5726L22.4385 9.63611L23.3574 9.62634L23.3672 10.5629ZM24.5117 10.5502L23.5928 10.5599L23.583 9.62341L24.502 9.61365L24.5117 10.5502ZM25.6348 10.5316L24.7295 10.5404L24.7197 9.61853L25.625 9.60876L25.6348 10.5316ZM26.7783 10.5189L25.873 10.5287L25.8633 9.60681L26.7686 9.59705L26.7783 10.5189ZM27.9004 10.5004L27.0078 10.5101L26.999 9.60095L27.8916 9.59119L27.9004 10.5004ZM29.0439 10.4896L28.1514 10.4984L28.1426 9.58923L29.0352 9.58044L29.0439 10.4896ZM30.1602 9.58435L30.167 10.4701L29.2881 10.4789L29.2783 9.58435L30.0332 9.57263L30.1602 9.58435ZM30.4229 9.60974C30.8252 9.64175 31.1281 9.65758 31.3027 9.65759L31.3115 10.4574L30.4316 10.4672L30.4229 9.60974ZM33.5781 10.4281H33.5244C33.5166 10.1363 33.5059 9.84238 33.4902 9.54529H33.5693L33.5781 10.4281ZM34.6992 10.4105L33.8467 10.4193L33.8379 9.55017L34.6904 9.54138L34.6992 10.4105ZM35.3359 9.53357C35.342 9.82523 35.3452 10.1182 35.3408 10.4027H34.9912L34.9824 9.53357H35.3359ZM18.8379 9.47107L18.3906 9.47595L18.3916 8.49939L18.8281 8.49451L18.8379 9.47107ZM19.96 9.45349L19.0146 9.46326L19.0049 8.49939L19.9502 8.48962L19.96 9.45349ZM21.1035 9.4408L20.1582 9.45056L20.1484 8.48767L21.0938 8.47791L21.1035 9.4408ZM22.2266 9.42322L21.2939 9.43298L21.2842 8.48279L22.2168 8.47302L22.2266 9.42322ZM23.3711 9.41052L22.4385 9.42029L22.4287 8.47009L23.3613 8.46033L23.3711 9.41052ZM24.4932 9.39294L23.5742 9.40271L23.5645 8.46619L24.4834 8.45642L24.4932 9.39294ZM24.8447 8.45154C25.1067 8.54227 25.3689 8.62619 25.6309 8.70447L25.6367 9.38025L24.7178 9.38904L24.709 8.45349L24.8447 8.45154ZM25.8486 8.76697C26.1574 8.85673 26.4609 8.93813 26.7549 9.01013V9.36072L25.8545 9.37048L25.8486 8.76697ZM26.9961 9.0658C27.3086 9.13873 27.6127 9.20321 27.9043 9.26013V9.349L26.998 9.35779L26.9961 9.0658ZM28.3066 9.34021H28.1318V9.30603L28.3066 9.34021ZM34.7021 9.26794L33.8359 9.27673L33.8281 8.3949L34.6934 8.38611L34.7021 9.26794ZM33.5625 9.2699H33.4746C33.4577 8.97876 33.4375 8.68453 33.4131 8.38806H33.5527L33.5625 9.2699ZM35.3291 9.24451H34.9717L34.9629 8.37634H35.2979C35.3109 8.66801 35.3221 8.96173 35.3291 9.24451ZM18.8193 8.31287L18.3916 8.31775V7.34119L18.8086 7.33728L18.8193 8.31287ZM19.9619 8.30212L19.0029 8.31189L18.9932 7.33533L19.9521 7.32556L19.9619 8.30212ZM21.084 8.28943L20.1387 8.29919L20.1289 7.3363L21.0742 7.32654L21.084 8.28943ZM22.2207 7.36462L22.2295 8.27087L21.2832 8.28064L21.2744 7.31775L22.1074 7.30896L22.2207 7.36462ZM22.4131 7.45642C22.7264 7.60757 23.0398 7.74865 23.3496 7.88025V8.24939L22.4189 8.26208L22.4131 7.45642ZM24.252 8.24255L23.5635 8.24939L23.5605 7.97595C23.7927 8.06963 24.0233 8.15836 24.252 8.24255ZM33.5645 8.12341H33.3896C33.3853 8.10651 33.3848 8.08856 33.3848 8.07166C33.3729 8.07164 33.1216 8.07111 32.6846 8.05115L32.6768 7.23669L33.5557 7.22791L33.5645 8.12341ZM34.6826 8.09998L33.8164 8.10876L33.8076 7.22595L34.6738 7.21716L34.6826 8.09998ZM35.2822 8.09412H34.9609L34.9521 7.2113H35.2236C35.2475 7.50722 35.2671 7.80176 35.2822 8.09412ZM32.415 8.02966L31.5352 7.95349L31.5283 7.24353L32.4072 7.23376L32.415 8.02966ZM31.292 7.92517C31.0162 7.89405 30.7178 7.85306 30.3984 7.80505L30.3936 7.24841L31.2852 7.23865L31.292 7.92517ZM30.1426 7.76697C29.8599 7.72074 29.5597 7.66814 29.249 7.60681V7.26111L30.1406 7.25134L30.1426 7.76697ZM29.0225 7.56189C28.7285 7.50259 28.4257 7.43505 28.1143 7.35974L28.1172 7.26794L29.0225 7.25818V7.56189ZM27.875 7.30212L27.7529 7.27087H27.875V7.30212ZM18.8203 7.16248L18.3926 7.16736L18.3936 6.17615L18.8105 6.17224L18.8203 7.16248ZM19.9434 7.14392L18.9844 7.15466L18.9746 6.1781L19.9336 6.16736L19.9434 7.14392ZM20.1416 6.16736C20.4559 6.37636 20.7721 6.57221 21.0898 6.7572V7.13416L20.1289 7.14392L20.1201 6.16541L20.1416 6.16736ZM21.7383 7.11853L21.2646 7.12341L21.2617 6.85095C21.4206 6.94406 21.5794 7.03373 21.7383 7.11853ZM27.8867 7.04138L26.9668 7.05115L26.958 6.11462L27.877 6.10486L27.8867 7.04138ZM29.0078 7.02185L28.1025 7.03064L28.0938 6.10876L28.999 6.099L29.0078 7.02185ZM30.1523 7.01013L29.2471 7.0199L29.2383 6.09802L30.1436 6.08826L30.1523 7.01013ZM31.2666 6.18689L31.2754 6.9906L30.3828 7.00037L30.374 6.09119L30.7119 6.08826L31.2666 6.18689ZM26.7422 6.9906L25.8203 6.69861L25.8145 6.12439L26.7334 6.1156L26.7422 6.9906ZM31.5195 6.22986C31.8328 6.28053 32.1321 6.32515 32.4131 6.36072L32.4199 6.97888L31.5273 6.98767L31.5195 6.22986ZM33.5361 6.48474L33.542 6.96521L32.6621 6.974L32.6572 6.39587C32.9758 6.43055 33.2699 6.46162 33.5361 6.48474ZM33.8027 6.50623C34.1579 6.53557 34.4564 6.55193 34.6816 6.55994L34.6807 6.94763L33.8027 6.95642V6.50623ZM25.6201 6.62927C25.3087 6.52372 24.9952 6.40772 24.6797 6.28259L24.6826 6.13123L25.6152 6.12146L25.6201 6.62927ZM24.4678 6.19861L24.3105 6.13416L24.4678 6.1322V6.19861ZM18.793 5.18396L18.8018 6.00427L18.3936 6.00916V5.01599H18.5889C18.6561 5.07292 18.7257 5.12881 18.793 5.18396ZM18.9678 5.32166C19.2706 5.55815 19.5747 5.78184 19.8818 5.99255L18.9746 6.00232L18.9678 5.32166ZM24.4795 5.93103L23.8457 5.93787L23.5322 5.79822L23.5244 4.97791L24.4688 4.96716L24.4795 5.93103ZM25.6006 5.91345L24.668 5.92322L24.6592 4.97302L25.5908 4.96326L25.6006 5.91345ZM26.7363 5.05115L26.7451 5.90076L25.8115 5.91052L25.8027 4.9613L26.4541 4.95447L26.7363 5.05115ZM26.9404 5.11755C27.2517 5.22009 27.5592 5.31596 27.8623 5.40369L27.8672 5.8822L26.9482 5.89099L26.9404 5.11755ZM28.0898 5.46912C28.4035 5.55804 28.7105 5.63953 29.0107 5.71423V5.86951L28.0938 5.87927L28.0898 5.46912ZM29.6084 5.85681H29.2266V5.76794L29.6084 5.85681ZM23.3291 5.70642C23.0127 5.56122 22.6963 5.40517 22.3799 5.23865V4.98962L23.3223 4.97986L23.3291 5.70642ZM22.2041 5.14587C22.1064 5.09432 22.0081 5.04251 21.9121 4.98474H22.2041V5.14587ZM22.1924 4.80408L21.5947 4.80994L21.2324 4.59705L21.2246 3.83728L22.1826 3.82751L22.1924 4.80408ZM23.3359 4.79236L22.3779 4.80212L22.3682 3.82556L23.3262 3.8158L23.3359 4.79236ZM23.6797 3.8158C23.9381 3.94122 24.1973 4.05919 24.4531 4.17126L24.459 4.77283L23.5137 4.78064L23.5059 3.8158H23.6797ZM24.6543 4.2572C24.973 4.39419 25.2901 4.52197 25.6035 4.64294V4.76111L24.6592 4.77087L24.6543 4.2572ZM25.8916 4.75134L25.7949 4.7533V4.71521L25.8916 4.75134ZM21.0674 4.49548C20.784 4.32353 20.5022 4.14225 20.2217 3.95251L20.0889 3.86365V3.84021L21.0605 3.82947L21.0674 4.49548ZM19.9297 3.68396H19.8311C19.5308 3.4723 19.2327 3.24728 18.9365 3.01013L18.9336 2.68982L19.9189 2.68005L19.9297 3.68396ZM21.0508 3.66443L20.0791 3.67419L20.0693 2.68494L21.041 2.67419L21.0508 3.66443ZM22.1895 3.04822L22.1953 3.65173L21.2227 3.66248L21.2139 2.67224L21.5352 2.66931L22.1895 3.04822ZM22.3545 3.13904C22.6704 3.31329 22.9859 3.47886 23.3018 3.63416L22.3594 3.64392L22.3545 3.13904ZM18.8018 2.82361H18.7031C18.6003 2.74989 18.4964 2.67538 18.3936 2.599V1.82849L18.791 1.82361L18.8018 2.82361ZM19.9004 1.59509L19.9092 2.52576L18.9248 2.53552L18.9141 1.53162L19.7998 1.52185L19.9004 1.59509ZM20.0625 1.70935C20.3906 1.94165 20.721 2.16264 21.0537 2.37244V2.51306L20.0703 2.5238L20.0625 1.70935ZM21.2627 2.50427H21.2041V2.46814L21.2627 2.50427ZM18.7744 0.981812L18.7822 1.67029L18.3936 1.67419V0.77771L18.7744 0.981812ZM19.5664 1.40857L18.9141 1.41443V1.07263C19.1318 1.18827 19.3493 1.30064 19.5664 1.40857Z" fill="url(#paint0_linear_82_801)"/>
</g>
</g>
<defs>
<linearGradient id="paint0_linear_82_801" x1="17.7441" y1="24.8784" x2="34.963" y2="25.0441" gradientUnits="userSpaceOnUse">
<stop stop-color="white"/>
<stop offset="1" stop-color="white" stop-opacity="0.1"/>
</linearGradient>
<clipPath id="clip0_82_801">
<rect width="164" height="40" fill="white" transform="translate(0.824219 0.77771)"/>
</clipPath>
<clipPath id="clip1_82_801">
<rect width="34.5188" height="40" fill="white" transform="translate(0.824219 0.77771)"/>
</clipPath>
</defs>
</svg>
