<svg width="935" height="150" viewBox="0 0 935 150" fill="none" xmlns="http://www.w3.org/2000/svg">
<path d="M95.471 104.711C95.471 127.193 79.0077 149.918 42.254 149.918C29.2278 150.051 16.3922 146.784 5.01421 140.439L0.0327148 137.097L9.02371 107.263L18.0147 112.792C25.7223 117.436 34.532 119.933 43.5297 120.023C49.2402 120.023 62.3622 118.686 62.3622 106.169C62.3622 100.093 60.965 94.9281 43.4082 87.9405C16.982 78.5223 4.10295 64.1217 4.10295 43.8272C3.9207 18.9147 24.8795 0.686071 53.6142 0.686071C64.8977 0.323027 76.0863 2.85405 86.1155 8.03829L92.1905 11.3194L82.1667 40.6068L73.6617 35.9888C67.3398 32.6478 60.2775 30.955 53.1282 31.0671C37.7585 31.0671 36.9687 40.3637 36.9687 42.1866C36.9687 47.8982 38.4267 52.1516 57.3807 59.5038C67.8219 62.9516 77.3097 68.7994 85.0827 76.5779C92.0473 84.2622 95.7698 94.3434 95.471 104.711Z" fill="white"/>
<path d="M166.002 0.68612C156.867 0.575477 147.813 2.40279 139.435 6.04759C131.058 9.69238 123.549 15.0719 117.402 21.8313C104.386 37.0113 97.5555 56.5323 98.2656 76.5172C98.2656 119.78 125.421 149.979 164.301 149.979C198.139 149.979 232.219 126.464 232.219 74.026C232.886 55.0252 226.576 36.4375 214.48 21.7706C208.449 14.9044 200.977 9.45457 192.597 5.80993C184.217 2.16528 175.136 0.415726 166.002 0.68612ZM165.091 120.084C149.235 120.084 132.103 106.291 132.103 76.0311C132.103 42.4297 149.964 30.4595 165.273 30.4595C187.933 30.4595 198.199 53.4276 198.199 74.6944C198.199 97.2979 187.993 120.084 165.091 120.084Z" fill="white"/>
<path d="M274.076 4.87866H241.21V149.918H329.115V119.719H274.076V4.87866Z" fill="white"/>
<path d="M368.056 4.87866H335.19V149.918H368.056V4.87866Z" fill="white"/>
<path d="M485.85 20.9806C472.668 8.82816 453.835 2.75195 428.138 2.75195C415.934 2.75123 403.749 3.68565 391.688 5.54701L384.702 6.76225V147.487L391.87 148.338C402.201 149.435 412.585 149.962 422.974 149.918C450.312 149.918 471.999 142.687 485.607 129.016C492.685 121.602 498.19 112.834 501.791 103.237C505.393 93.6412 507.017 83.4155 506.566 73.1752C507.045 63.4997 505.443 53.8339 501.87 44.83C498.296 35.8261 492.834 27.6935 485.85 20.9806ZM426.255 120.266C424.675 120.266 421.091 120.266 417.567 120.266V32.7684C421.342 32.3898 425.134 32.2073 428.928 32.2216C443.933 32.2216 455.232 35.9888 462.644 43.4018C466.313 47.5154 469.118 52.3245 470.892 57.5436C472.666 62.7626 473.373 68.2851 472.971 73.7829C472.789 103.982 456.812 120.266 426.255 120.266Z" fill="white"/>
<path d="M530.562 4.69629H574.849C602.977 4.69629 621.019 20.7982 621.019 46.3791C621.019 71.9599 602.794 88.3049 574.849 88.3049H535.544V148.338H530.562V4.69629ZM535.544 9.37497V83.8085H574.546C599.939 83.8085 616.038 69.5902 616.038 46.5614C616.038 23.5933 599.939 9.55726 574.546 9.55726L535.544 9.37497Z" fill="white"/>
<path d="M641.431 44.7994H646.291V65.5801C647.632 59.1092 651.213 53.3189 656.402 49.2287C661.592 45.1385 668.058 43.0106 674.661 43.2196C678.246 43.1534 681.805 43.8364 685.11 45.2248V50.268C681.633 48.5802 677.796 47.7667 673.932 47.8983C656.862 47.8983 646.291 62.785 646.291 83.6872V148.338H641.431V44.7994Z" fill="white"/>
<path d="M686.508 96.5687C686.508 63.8179 704.733 43.4019 732.07 43.4019C759.408 43.4019 777.754 63.6964 777.754 96.5687C777.754 129.38 759.529 149.918 732.07 149.918C704.611 149.918 686.508 129.319 686.508 96.5687ZM772.894 96.5687C772.894 66.5522 756.249 47.959 732.07 47.959C707.892 47.959 691.489 66.6737 691.489 96.5687C691.489 126.524 707.588 145.178 732.07 145.178C756.553 145.178 772.894 126.524 772.894 96.5687Z" fill="white"/>
<path d="M790.269 96.5687C790.269 63.8179 808.494 43.4019 835.892 43.4019C863.29 43.4019 881.576 63.6964 881.576 96.5687C881.576 129.38 863.351 149.918 835.892 149.918C808.433 149.918 790.269 129.319 790.269 96.5687ZM876.655 96.5687C876.655 66.5522 860.071 47.959 835.892 47.959C811.714 47.959 795.25 66.6737 795.25 96.5687C795.25 126.524 811.41 145.178 835.892 145.178C860.374 145.178 876.655 126.524 876.655 96.5687Z" fill="white"/>
<path d="M904.114 49.2959H889.717V44.7995H904.114V26.2671C904.114 9.98281 912.984 3.1167 926.713 3.1167C929.287 3.13834 931.852 3.42338 934.368 3.96737V8.34224C931.913 7.80671 929.408 7.54183 926.896 7.55234C915.961 7.55234 909.096 12.8386 909.096 26.8747V45.1033H933.396V49.2959H909.096V148.338H904.114V49.2959Z" fill="white"/>
</svg>
